<?xml version="1.0" encoding="utf-8"?>
<!-- Generator: Adobe Illustrator 27.1.1, SVG Export Plug-In . SVG Version: 6.00 Build 0)  -->
<svg version="1.1" id="Layer_1" xmlns="http://www.w3.org/2000/svg" xmlns:xlink="http://www.w3.org/1999/xlink" x="0px" y="0px"
	 viewBox="0 0 100 50" style="enable-background:new 0 0 100 50;" xml:space="preserve">
<style type="text/css">
	.st0{fill:#FFFFFF;}
	.st1{font-family:'ArialMT';}
	.st2{font-size:45.9972px;}
</style>
<text transform="matrix(0.5862 0 0 1 42.5713 38.499)" class="st0 st1 st2"> Karu</text>
<rect x="65.9" y="12.3" class="st0" width="6.7" height="1.8"/>
<polygon class="st0" points="20.7,7.4 20.6,15 37.8,7.4 "/>
<path class="st0" d="M20.6,19.1v4.1h0.1c0,0,0,0,0.2,1.4s0.1,1.4,0.2,2.3s0.1,2.7,0.1,3.8c0,1.1-0.1,2-0.2,3.2
	c-0.2,1.1-0.4,1.5-0.7,2.5c-0.4,1-1.2,1.8-1.2,1.8c-0.1,0.2-0.7,0.7-1.4,1h9.5c-0.5-0.1-0.9-0.2-1.1-0.3c-0.5-0.2-2-1-2.4-1.6
	s-0.8-1.2-0.9-1.7s-0.4-1.8-0.4-2.2v-9.5h2.8v9.5c0,0-0.1,1.9,1.2,3.1c0,0,1.1,1.1,2.5,1.3c0,0,1.7,0.3,3.1-0.2c0,0,1.6-0.4,2.3-1.4
	c0,0,0.7-1.1,0.8-1.9l0.1-1.1v-7.4L20.6,19.1z"/>
<polygon class="st0" points="4.8,7.4 16.5,15.3 16.5,7.4 "/>
<polygon class="st0" points="13.5,15.7 4,23.3 16.5,23.2 16.5,17.6 "/>
<polygon class="st0" points="1,8.2 1,21.8 10.6,14.3 "/>
<path class="st0" d="M12.5,38.4c-1.3-1.1-2-3.8-2-3.8h-0.1c-0.1,1.5-1.8,2.9-1.8,2.9c-0.8,0.8-3.3,1.4-3.3,1.4C5,39,4.7,39,4.4,39.2
	h9.2C13.3,39,13,38.8,12.5,38.4z"/>
<path class="st0" d="M9.5,26.7L1,26.8v10.1c0.3-0.2,1.1-0.5,2.8-1c3.4-1,3.6-1.3,4.8-2.4C9.7,32.3,9.5,26.7,9.5,26.7z"/>
<polygon class="st0" points="38.3,10.6 38.3,24.2 37.8,23.9 37.8,23.9 37.7,23.9 32.8,21.6 32.9,13 "/>
<path class="st0" d="M38.3,27.5v11.7h-5.6c0.5-0.1,1.1-0.3,1.5-0.5c0.9-0.3,1.5-0.8,1.9-1.2s0.8-1,1.1-1.7s0.5-2.4,0.5-2.4v-6.1
	L38.3,27.5z"/>
</svg>
